<svg version="1.1" viewBox="0.0 0.0 960.0 540.0" fill="none" stroke="none" stroke-linecap="square" stroke-miterlimit="10" xmlns:xlink="http://www.w3.org/1999/xlink" xmlns="http://www.w3.org/2000/svg"><clipPath id="p.0"><path d="m0 0l960.0 0l0 540.0l-960.0 0l0 -540.0z" clip-rule="nonzero"/></clipPath><g clip-path="url(#p.0)"><path fill="#e7e7e7" d="m0 0l960.0 0l0 540.0l-960.0 0z" fill-rule="evenodd"/><path fill="#000000" fill-opacity="0.0" d="m163.13387 138.51706l479.81104 0l0 74.14174l-479.81104 0z" fill-rule="evenodd"/><path fill="#06b178" d="m189.22762 203.1058l0 -10.65625l41.078125 0l0 10.65625l-41.078125 0zm-15.46875 13.53125l29.1875 -62.109375l13.828125 0l29.46875 62.109375l-13.921875 0l-25.53125 -55.96875l6.140625 0l-25.34375 55.96875l-13.828125 0zm73.06923 -47.71875l37.046875 0l0 9.703125l-37.046875 0l0 -9.703125zm12.28125 -13.046875l12.484375 0l0 60.765625l-12.484375 0l0 -60.765625zm76.32022 60.765625l0 -26.203125q0 -3.9375 -1.34375 -6.53125q-1.34375 -2.59375 -4.28125 -3.9375q-2.921875 -1.34375 -7.8125 -1.34375q-4.703125 0 -8.546875 1.78125q-3.84375 1.765625 -6.25 4.609375q-2.390625 2.828125 -2.671875 6.0l-0.09375 -5.28125q0.46875 -3.171875 2.1875 -6.34375q1.734375 -3.171875 4.609375 -5.75q2.890625 -2.59375 6.96875 -4.171875q4.078125 -1.59375 9.171875 -1.59375q4.421875 0 8.15625 1.109375q3.75 1.09375 6.53125 3.40625q2.78125 2.296875 4.3125 5.703125q1.546875 3.40625 1.546875 8.015625l0 30.53125l-12.484375 0zm-42.71875 0l0 -66.90625l12.484375 0l0 66.90625l-12.484375 0zm89.75134 1.0625q-7.09375 0 -12.90625 -3.125q-5.8125 -3.125 -9.21875 -8.734375q-3.40625 -5.625 -3.40625 -13.015625q0 -7.578125 3.453125 -13.140625q3.46875 -5.578125 9.359375 -8.6875q5.90625 -3.125 13.390625 -3.125q8.265625 0 13.296875 3.3125q5.046875 3.3125 7.34375 8.984375q2.3125 5.65625 2.3125 12.65625q0 4.234375 -1.34375 8.609375q-1.34375 4.359375 -4.125 8.0625q-2.78125 3.6875 -7.296875 5.953125q-4.515625 2.25 -10.859375 2.25zm4.046875 -9.609375q5.65625 0 9.78125 -1.921875q4.125 -1.921875 6.328125 -5.375q2.21875 -3.453125 2.21875 -7.96875q0 -4.890625 -2.265625 -8.296875q-2.25 -3.40625 -6.328125 -5.1875q-4.078125 -1.78125 -9.734375 -1.78125q-7.96875 0 -12.390625 4.1875q-4.421875 4.171875 -4.421875 11.078125q0 4.609375 2.109375 8.015625q2.125 3.40625 5.90625 5.328125q3.796875 1.921875 8.796875 1.921875zm18.328125 -39.171875l12.484375 0l0 47.71875l-11.625 0q0 0 -0.234375 -1.875q-0.234375 -1.875 -0.4375 -4.75q-0.1875 -2.875 -0.1875 -5.65625l0 -35.4375zm23.814209 0l12.46875 0l0 47.71875l-12.46875 0l0 -47.71875zm34.65625 -1.046875q4.40625 0 8.140625 1.15625q3.75 1.140625 6.53125 3.546875q2.796875 2.40625 4.328125 6.109375q1.53125 3.6875 1.53125 8.765625l0 29.1875l-12.46875 0l0 -26.96875q0 -6.0625 -2.9375 -8.890625q-2.921875 -2.828125 -9.546875 -2.828125q-4.984375 0 -9.03125 1.921875q-4.03125 1.921875 -6.53125 4.859375q-2.484375 2.921875 -2.875 6.078125l-0.09375 -4.890625q0.484375 -3.359375 2.203125 -6.53125q1.734375 -3.171875 4.65625 -5.8125q2.9375 -2.640625 6.96875 -4.171875q4.03125 -1.53125 9.125 -1.53125z" fill-rule="nonzero"/><path fill="#06b178" d="m293.43195 240.92767l66.71875 0l0 10.65625l-55.390625 44.34375l-1.15625 -3.546875l56.546875 0l0 10.65625l-66.71875 0l0 -10.65625l55.390625 -44.359375l1.15625 3.5625l-56.546875 0l0 -10.65625zm122.112854 62.109375l0 -26.203125q0 -3.9375 -1.34375 -6.53125q-1.34375 -2.59375 -4.28125 -3.9375q-2.921875 -1.34375 -7.8125 -1.34375q-4.703125 0 -8.546875 1.78125q-3.84375 1.765625 -6.25 4.609375q-2.390625 2.828125 -2.671875 6.0l-0.09375 -5.28125q0.46875 -3.171875 2.1875 -6.34375q1.734375 -3.171875 4.609375 -5.75q2.890625 -2.59375 6.96875 -4.171875q4.078125 -1.59375 9.171875 -1.59375q4.421875 0 8.15625 1.109375q3.75 1.09375 6.53125 3.40625q2.78125 2.296875 4.3125 5.703125q1.546875 3.40625 1.546875 8.015625l0 30.53125l-12.484375 0zm-42.71875 0l0 -66.90625l12.484375 0l0 66.90625l-12.484375 0zm89.75134 1.0625q-7.09375 0 -12.90625 -3.125q-5.8125 -3.125 -9.21875 -8.734375q-3.40625 -5.625 -3.40625 -13.015625q0 -7.578125 3.453125 -13.140625q3.46875 -5.578125 9.359375 -8.6875q5.90625 -3.125 13.390625 -3.125q8.265625 0 13.296875 3.3125q5.046875 3.3125 7.34375 8.984375q2.3125 5.65625 2.3125 12.65625q0 4.234375 -1.34375 8.609375q-1.34375 4.359375 -4.125 8.0625q-2.78125 3.6875 -7.296875 5.953125q-4.515625 2.25 -10.859375 2.25zm4.046875 -9.609375q5.65625 0 9.78125 -1.921875q4.125 -1.921875 6.328125 -5.375q2.21875 -3.453125 2.21875 -7.96875q0 -4.890625 -2.265625 -8.296875q-2.25 -3.40625 -6.328125 -5.1875q-4.078125 -1.78125 -9.734375 -1.78125q-7.96875 0 -12.390625 4.1875q-4.421875 4.171875 -4.421875 11.078125q0 4.609375 2.109375 8.015625q2.125 3.40625 5.90625 5.328125q3.796875 1.921875 8.796875 1.921875zm18.328125 -39.171875l12.484375 0l0 47.71875l-11.625 0q0 0 -0.234375 -1.875q-0.234375 -1.875 -0.4375 -4.75q-0.1875 -2.875 -0.1875 -5.65625l0 -35.4375zm23.814209 0l12.46875 0l0 47.71875l-12.46875 0l0 -47.71875zm34.65625 -1.046875q4.40625 0 8.140625 1.15625q3.75 1.140625 6.53125 3.546875q2.796875 2.40625 4.328125 6.109375q1.53125 3.6875 1.53125 8.765625l0 29.1875l-12.46875 0l0 -26.96875q0 -6.0625 -2.9375 -8.890625q-2.921875 -2.828125 -9.546875 -2.828125q-4.984375 0 -9.03125 1.921875q-4.03125 1.921875 -6.53125 4.859375q-2.484375 2.921875 -2.875 6.078125l-0.09375 -4.890625q0.484375 -3.359375 2.203125 -6.53125q1.734375 -3.171875 4.65625 -5.8125q2.9375 -2.640625 6.96875 -4.171875q4.03125 -1.53125 9.125 -1.53125zm55.66858 41.46875q-7.765625 0 -13.671875 -2.34375q-5.90625 -2.359375 -9.171875 -6.96875q-3.265625 -4.609375 -3.265625 -11.140625q0 -6.421875 3.171875 -11.125q3.171875 -4.703125 9.0625 -7.296875q5.90625 -2.59375 13.875 -2.59375q2.21875 0 4.28125 0.296875q2.0625 0.28125 4.078125 0.75l24.09375 0.109375l0 9.40625q-4.890625 0.09375 -9.9375 -1.203125q-5.03125 -1.296875 -8.875 -2.828125l-0.296875 -0.671875q3.265625 1.53125 6.140625 3.796875q2.890625 2.25 4.65625 5.171875q1.78125 2.921875 1.78125 6.765625q0 6.25 -3.171875 10.71875q-3.15625 4.453125 -8.96875 6.8125q-5.8125 2.34375 -13.78125 2.34375zm16.03125 26.984375l0 -2.3125q0 -4.421875 -2.828125 -6.15625q-2.828125 -1.71875 -7.71875 -1.71875l-14.890625 0q-4.3125 0 -7.25 -0.671875q-2.921875 -0.671875 -4.65625 -1.921875q-1.71875 -1.25 -2.5 -2.9375q-0.765625 -1.671875 -0.765625 -3.578125q0 -3.84375 2.5 -5.8125q2.5 -1.96875 6.71875 -2.640625q4.234375 -0.671875 9.3125 -0.296875l6.046875 1.0625q-6.046875 0.1875 -8.984375 1.015625q-2.921875 0.8125 -2.921875 3.203125q0 1.453125 1.15625 2.265625q1.15625 0.8125 3.265625 0.8125l15.65625 0q6.421875 0 10.984375 1.390625q4.5625 1.390625 6.953125 4.703125q2.40625 3.3125 2.40625 9.078125l0 4.515625l-12.484375 0zm-16.03125 -36.0q4.140625 0 7.25 -1.34375q3.125 -1.359375 4.84375 -3.890625q1.734375 -2.546875 1.734375 -6.09375q0 -3.65625 -1.734375 -6.25q-1.71875 -2.59375 -4.796875 -3.984375q-3.0625 -1.390625 -7.296875 -1.390625q-4.125 0 -7.296875 1.390625q-3.15625 1.390625 -4.890625 3.984375q-1.734375 2.59375 -1.734375 6.25q0 3.546875 1.734375 6.09375q1.734375 2.53125 4.84375 3.890625q3.125 1.34375 7.34375 1.34375z" fill-rule="nonzero"/><path fill="#000000" fill-opacity="0.0" d="m349.2467 308.74014l517.54333 0l0 60.37796l-517.54333 0z" fill-rule="evenodd"/><path fill="#06b178" d="m383.1084 374.06015l-6.34375 -38.0625l6.15625 0l5.25 33.25l-1.765625 0l18.875 -33.25l6.265625 0l4.71875 33.25l-1.703125 0l19.390625 -33.25l5.984375 0l-22.34375 38.0625l-6.390625 0l-4.484375 -33.84375l1.640625 0l-18.921875 33.84375l-6.328125 0zm74.97983 -9.5l5.328125 0q-1.078125 2.875 -3.328125 5.171875q-2.234375 2.28125 -5.40625 3.625q-3.15625 1.34375 -7.03125 1.34375q-4.5625 0 -7.734375 -1.921875q-3.15625 -1.9375 -4.5 -5.34375q-1.328125 -3.40625 -0.359375 -7.921875q0.96875 -4.578125 3.6875 -8.0q2.71875 -3.4375 6.65625 -5.375q3.9375 -1.9375 8.453125 -1.9375q4.75 0 7.578125 1.875q2.828125 1.875 3.59375 5.546875q0.78125 3.671875 -0.671875 9.125l-23.984375 0q-0.28125 2.640625 0.59375 4.703125q0.890625 2.046875 2.84375 3.21875q1.953125 1.171875 4.828125 1.171875q3.21875 0 5.703125 -1.46875q2.484375 -1.46875 3.75 -3.8125zm-5.203125 -15.546875q-3.8125 0 -6.765625 2.03125q-2.9375 2.015625 -4.484375 5.359375l18.015625 0q0.53125 -3.578125 -1.421875 -5.484375q-1.9375 -1.90625 -5.34375 -1.90625zm32.149445 25.640625q-3.453125 0 -5.40625 -1.4375q-1.953125 -1.4375 -2.78125 -3.78125q-0.8125 -2.359375 -0.84375 -5.0q-0.015625 -2.640625 0.484375 -4.984375q0.671875 -3.15625 1.8125 -5.90625q1.140625 -2.765625 2.875 -4.875q1.734375 -2.125 4.265625 -3.296875q2.546875 -1.171875 6.0625 -1.171875q3.9375 0 6.59375 1.96875q2.671875 1.96875 3.6875 5.40625q1.03125 3.421875 0.09375 7.875q-0.953125 4.46875 -3.5 7.90625q-2.546875 3.421875 -6.046875 5.359375q-3.484375 1.9375 -7.296875 1.9375zm-0.546875 -4.875q2.8125 0 5.234375 -1.3125q2.421875 -1.328125 4.109375 -3.640625q1.703125 -2.328125 2.359375 -5.375q0.953125 -4.515625 -0.921875 -7.4375q-1.859375 -2.9375 -6.375 -2.9375q-3.046875 0 -5.46875 1.296875q-2.40625 1.28125 -4.03125 3.625q-1.609375 2.34375 -2.265625 5.453125q-0.609375 2.875 -0.03125 5.234375q0.59375 2.34375 2.4375 3.71875q1.84375 1.375 4.953125 1.375zm-1.75 -36.71875l-7.359375 34.609375q-0.28125 1.34375 -0.828125 3.21875q-0.546875 1.875 -0.9375 3.171875l-5.171875 0l8.71875 -41.0l5.578125 0zm22.566864 31.5l5.15625 0q-0.203125 2.34375 1.296875 3.84375q1.5156555 1.484375 4.7969055 1.484375q2.109375 0 3.375 -0.484375q1.28125 -0.5 1.96875 -1.375q0.6875 -0.890625 0.921875 -1.953125q0.28125 -1.34375 -0.265625 -2.078125q-0.546875 -0.734375 -1.734375 -1.234375q-1.1875 -0.5 -2.84375 -0.96875q-1.828125 -0.515625 -3.609375 -1.21875q-1.78125 -0.703125 -3.1875305 -1.703125q-1.40625 -1.0 -2.0625 -2.5q-0.640625 -1.5 -0.1875 -3.65625q0.390625 -1.828125 1.515625 -3.40625q1.140625 -1.59375 2.8750305 -2.734375q1.734375 -1.140625 3.859375 -1.75q2.125 -0.625 4.53125 -0.625q3.34375 0 5.375 1.203125q2.03125 1.203125 2.765625 3.375q0.75 2.171875 0.21875 4.984375l-4.9375 0q0.125 -2.46875 -0.921875 -3.609375q-1.046875 -1.140625 -3.625 -1.140625q-2.53125 0 -4.09375 1.0q-1.546875 1.0 -1.921875 2.703125q-0.265625 1.28125 0.5 2.078125q0.765625 0.78125 2.21875 1.375q1.453125 0.59375 3.328125 1.234375q1.734375 0.640625 3.3125 1.328125q1.59375 0.671875 2.78125 1.578125q1.1875 0.90625 1.671875 2.34375q0.5 1.4375 0.046875 3.546875q-0.546875 2.578125 -2.25 4.484375q-1.703125 1.90625 -4.359375 2.96875q-2.65625 1.046875 -6.125 1.046875q-3.15625 0 -5.2031555 -0.75q-2.03125 -0.765625 -3.265625 -2.0q-1.234375 -1.234375 -1.734375 -2.609375q-0.5 -1.375 -0.5 -2.671875q0.015625 -1.296875 0.3125 -2.109375zm42.908844 -31.859375l-1.296875 6.046875l-6.984375 0l1.296875 -6.046875l6.984375 0zm-8.84375 12.09375l5.5625 0l-6.21875 29.265625l-5.5625 0l6.21875 -29.265625zm11.428894 0l18.953125 0l-1.03125 4.859375l-18.953125 0l1.03125 -4.859375zm8.34375 -7.75l5.578125 0l-7.875 37.015625l-5.578125 0l7.875 -37.015625zm33.79651 27.515625l5.328125 0q-1.078125 2.875 -3.328125 5.171875q-2.234375 2.28125 -5.40625 3.625q-3.15625 1.34375 -7.03125 1.34375q-4.5625 0 -7.734375 -1.921875q-3.15625 -1.9375 -4.5 -5.34375q-1.328125 -3.40625 -0.359375 -7.921875q0.96875 -4.578125 3.6875 -8.0q2.71875 -3.4375 6.65625 -5.375q3.9375 -1.9375 8.453125 -1.9375q4.75 0 7.578125 1.875q2.828125 1.875 3.59375 5.546875q0.78125 3.671875 -0.671875 9.125l-23.984375 0q-0.28125 2.640625 0.59375 4.703125q0.890625 2.046875 2.84375 3.21875q1.953125 1.171875 4.828125 1.171875q3.21875 0 5.703125 -1.46875q2.484375 -1.46875 3.75 -3.8125zm-5.203125 -15.546875q-3.8125 0 -6.765625 2.03125q-2.9375 2.015625 -4.484375 5.359375l18.015625 0q0.53125 -3.578125 -1.421875 -5.484375q-1.9375 -1.90625 -5.34375 -1.90625zm35.772522 11.90625l1.046875 -4.921875l13.671875 0q3.40625 0 5.921875 -2.046875q2.515625 -2.0625 3.21875 -5.40625q0.734375 -3.453125 -0.921875 -5.453125q-1.65625 -2.0 -5.0625 -2.0l-12.734375 0l-7.0 32.96875l-5.625 0l8.09375 -38.0625l18.125 0q2.8125 0 5.078125 0.796875q2.265625 0.78125 3.765625 2.375q1.515625 1.578125 2.046875 3.921875q0.53125 2.34375 -0.125 5.453125q-0.640625 3.046875 -2.171875 5.40625q-1.53125 2.34375 -3.71875 3.90625q-2.171875 1.546875 -4.765625 2.3125q-2.59375 0.75 -5.40625 0.75l-13.4375 0zm43.344604 13.78125q-4.28125 0 -7.46875 -1.8125q-3.1875 -1.8125 -4.578125 -5.21875q-1.390625 -3.40625 -0.375 -8.15625q1.015625 -4.8125 3.859375 -8.234375q2.84375 -3.4375 6.796875 -5.25q3.96875 -1.828125 8.25 -1.828125q4.28125 0 7.421875 1.828125q3.140625 1.8125 4.515625 5.25q1.375 3.421875 0.359375 8.234375q-1.015625 4.75 -3.84375 8.15625q-2.828125 3.40625 -6.75 5.21875q-3.90625 1.8125 -8.1875 1.8125zm1.03125 -4.859375q2.640625 0 5.15625 -1.203125q2.515625 -1.203125 4.390625 -3.515625q1.875 -2.328125 2.578125 -5.609375q0.703125 -3.34375 -0.1875 -5.6875q-0.875 -2.34375 -2.875 -3.578125q-1.984375 -1.234375 -4.625 -1.234375q-2.640625 0 -5.1875 1.203125q-2.546875 1.203125 -4.453125 3.546875q-1.90625 2.34375 -2.625 5.75q-0.703125 3.28125 0.1875 5.609375q0.890625 2.3125 2.921875 3.515625q2.03125 1.203125 4.71875 1.203125zm26.74878 -25.046875l5.625 0l-6.21875 29.265625l-5.625 0l6.21875 -29.265625zm14.46875 4.984375q-3.046875 0 -5.484375 1.40625q-2.4375 1.40625 -4.140625 3.46875q-1.6875 2.046875 -2.5 3.921875l0.65625 -3.34375q0.171875 -0.59375 0.703125 -1.84375q0.53125 -1.265625 1.578125 -2.84375q1.046875 -1.59375 2.515625 -3.03125q1.484375 -1.4375 3.4375 -2.375q1.96875 -0.9375 4.421875 -0.9375l-1.1875 5.578125zm4.1743774 -4.984375l18.953125 0l-1.03125 4.859375l-18.953125 0l1.03125 -4.859375zm8.34375 -7.75l5.578125 0l-7.875 37.015625l-5.578125 0l7.875 -37.015625zm13.855713 7.921875l19.1875 0l-1.03125 4.8125l-19.1875 0l1.03125 -4.8125zm18.546875 -11.90625l3.75 0l-1.09375 5.15625l-3.171875 0q-1.515625 -0.046875 -2.84375 0.390625q-1.328125 0.4375 -2.234375 1.5625q-0.90625 1.109375 -1.359375 3.21875l-6.515625 30.671875l-5.578125 0l6.578125 -30.96875q0.75 -3.515625 2.484375 -5.75q1.75 -2.234375 4.3125 -3.25q2.5625 -1.03125 5.671875 -1.03125zm12.897888 41.640625q-4.28125 0 -7.46875 -1.8125q-3.1875 -1.8125 -4.578125 -5.21875q-1.390625 -3.40625 -0.375 -8.15625q1.015625 -4.8125 3.859375 -8.234375q2.84375 -3.4375 6.796875 -5.25q3.96875 -1.828125 8.25 -1.828125q4.28125 0 7.421875 1.828125q3.140625 1.8125 4.515625 5.25q1.375 3.421875 0.359375 8.234375q-1.015625 4.75 -3.84375 8.15625q-2.828125 3.40625 -6.75 5.21875q-3.90625 1.8125 -8.1875 1.8125zm1.03125 -4.859375q2.640625 0 5.15625 -1.203125q2.515625 -1.203125 4.390625 -3.515625q1.875 -2.328125 2.578125 -5.609375q0.703125 -3.34375 -0.1875 -5.6875q-0.875 -2.34375 -2.875 -3.578125q-1.984375 -1.234375 -4.625 -1.234375q-2.640625 0 -5.1875 1.203125q-2.546875 1.203125 -4.453125 3.546875q-1.90625 2.34375 -2.625 5.75q-0.703125 3.28125 0.1875 5.609375q0.890625 2.3125 2.921875 3.515625q2.03125 1.203125 4.71875 1.203125zm29.826965 -36.78125l5.625 0l-8.71875 41.0l-5.625 0l8.71875 -41.0zm20.487854 -0.359375l-1.296875 6.046875l-6.984375 0l1.296875 -6.046875l6.984375 0zm-8.84375 12.09375l5.5625 0l-6.21875 29.265625l-5.5625 0l6.21875 -29.265625zm21.257019 29.90625q-4.28125 0 -7.46875 -1.8125q-3.1875 -1.8125 -4.578125 -5.21875q-1.390625 -3.40625 -0.375 -8.15625q1.015625 -4.8125 3.859375 -8.234375q2.84375 -3.4375 6.796875 -5.25q3.96875 -1.828125 8.25 -1.828125q4.28125 0 7.421875 1.828125q3.140625 1.8125 4.515625 5.25q1.375 3.421875 0.359375 8.234375q-1.015625 4.75 -3.84375 8.15625q-2.828125 3.40625 -6.75 5.21875q-3.90625 1.8125 -8.1875 1.8125zm1.03125 -4.859375q2.640625 0 5.15625 -1.203125q2.515625 -1.203125 4.390625 -3.515625q1.875 -2.328125 2.578125 -5.609375q0.703125 -3.34375 -0.1875 -5.6875q-0.875 -2.34375 -2.875 -3.578125q-1.984375 -1.234375 -4.625 -1.234375q-2.640625 0 -5.1875 1.203125q-2.546875 1.203125 -4.453125 3.546875q-1.90625 2.34375 -2.625 5.75q-0.703125 3.28125 0.1875 5.609375q0.890625 2.3125 2.921875 3.515625q2.03125 1.203125 4.71875 1.203125z" fill-rule="nonzero"/><path fill="#000000" fill-opacity="0.0" d="m166.25984 136.54855l479.81104 0l0 74.14174l-479.81104 0z" fill-rule="evenodd"/><path fill="#000000" d="m192.35359 201.1373l0 -10.65625l41.078125 0l0 10.65625l-41.078125 0zm-15.46875 13.53125l29.1875 -62.109375l13.828125 0l29.46875 62.109375l-13.921875 0l-25.53125 -55.96875l6.140625 0l-25.34375 55.96875l-13.828125 0zm73.06923 -47.71875l37.046875 0l0 9.703125l-37.046875 0l0 -9.703125zm12.28125 -13.046875l12.484375 0l0 60.765625l-12.484375 0l0 -60.765625zm76.32025 60.765625l0 -26.203125q0 -3.9375 -1.34375 -6.53125q-1.34375 -2.59375 -4.28125 -3.9375q-2.921875 -1.34375 -7.8125 -1.34375q-4.703125 0 -8.546875 1.78125q-3.84375 1.765625 -6.25 4.609375q-2.390625 2.828125 -2.671875 6.0l-0.09375 -5.28125q0.46875 -3.171875 2.1875 -6.34375q1.734375 -3.171875 4.609375 -5.75q2.890625 -2.59375 6.96875 -4.171875q4.078125 -1.59375 9.171875 -1.59375q4.421875 0 8.15625 1.109375q3.75 1.09375 6.53125 3.40625q2.78125 2.296875 4.3125 5.703125q1.546875 3.40625 1.546875 8.015625l0 30.53125l-12.484375 0zm-42.71875 0l0 -66.90625l12.484375 0l0 66.90625l-12.484375 0zm89.75134 1.0625q-7.09375 0 -12.90625 -3.125q-5.8125 -3.125 -9.21875 -8.734375q-3.40625 -5.625 -3.40625 -13.015625q0 -7.578125 3.453125 -13.140625q3.46875 -5.578125 9.359375 -8.6875q5.90625 -3.125 13.390625 -3.125q8.265625 0 13.296875 3.3125q5.046875 3.3125 7.34375 8.984375q2.3125 5.65625 2.3125 12.65625q0 4.234375 -1.34375 8.609375q-1.34375 4.359375 -4.125 8.0625q-2.78125 3.6875 -7.296875 5.953125q-4.515625 2.25 -10.859375 2.25zm4.046875 -9.609375q5.65625 0 9.78125 -1.921875q4.125 -1.921875 6.328125 -5.375q2.21875 -3.453125 2.21875 -7.96875q0 -4.890625 -2.265625 -8.296875q-2.25 -3.40625 -6.328125 -5.1875q-4.078125 -1.78125 -9.734375 -1.78125q-7.96875 0 -12.390625 4.1875q-4.421875 4.171875 -4.421875 11.078125q0 4.609375 2.109375 8.015625q2.125 3.40625 5.90625 5.328125q3.796875 1.921875 8.796875 1.921875zm18.328125 -39.171875l12.484375 0l0 47.71875l-11.625 0q0 0 -0.234375 -1.875q-0.234375 -1.875 -0.4375 -4.75q-0.1875 -2.875 -0.1875 -5.65625l0 -35.4375zm23.814209 0l12.46875 0l0 47.71875l-12.46875 0l0 -47.71875zm34.65625 -1.046875q4.40625 0 8.140625 1.15625q3.75 1.140625 6.53125 3.546875q2.796875 2.40625 4.328125 6.109375q1.53125 3.6875 1.53125 8.765625l0 29.1875l-12.46875 0l0 -26.96875q0 -6.0625 -2.9375 -8.890625q-2.921875 -2.828125 -9.546875 -2.828125q-4.984375 0 -9.03125 1.921875q-4.03125 1.921875 -6.53125 4.859375q-2.484375 2.921875 -2.875 6.078125l-0.09375 -4.890625q0.484375 -3.359375 2.203125 -6.53125q1.734375 -3.171875 4.65625 -5.8125q2.9375 -2.640625 6.96875 -4.171875q4.03125 -1.53125 9.125 -1.53125z" fill-rule="nonzero"/><path fill="#000000" d="m296.55795 238.95917l66.71875 0l0 10.65625l-55.390625 44.34375l-1.15625 -3.546875l56.546875 0l0 10.65625l-66.71875 0l0 -10.65625l55.390625 -44.359375l1.15625 3.5625l-56.546875 0l0 -10.65625zm122.11282 62.109375l0 -26.203125q0 -3.9375 -1.34375 -6.53125q-1.34375 -2.59375 -4.28125 -3.9375q-2.921875 -1.34375 -7.8125 -1.34375q-4.703125 0 -8.546875 1.78125q-3.84375 1.765625 -6.25 4.609375q-2.390625 2.828125 -2.671875 6.0l-0.09375 -5.28125q0.46875 -3.171875 2.1875 -6.34375q1.734375 -3.171875 4.609375 -5.75q2.890625 -2.59375 6.96875 -4.171875q4.078125 -1.59375 9.171875 -1.59375q4.421875 0 8.15625 1.109375q3.7500305 1.09375 6.5312805 3.40625q2.78125 2.296875 4.3125 5.703125q1.546875 3.40625 1.546875 8.015625l0 30.53125l-12.4844055 0zm-42.71875 0l0 -66.90625l12.484375 0l0 66.90625l-12.484375 0zm89.75137 1.0625q-7.09375 0 -12.90625 -3.125q-5.8125 -3.125 -9.21875 -8.734375q-3.40625 -5.625 -3.40625 -13.015625q0 -7.578125 3.453125 -13.140625q3.46875 -5.578125 9.359375 -8.6875q5.90625 -3.125 13.390625 -3.125q8.265625 0 13.296875 3.3125q5.046875 3.3125 7.34375 8.984375q2.3125 5.65625 2.3125 12.65625q0 4.234375 -1.34375 8.609375q-1.34375 4.359375 -4.125 8.0625q-2.78125 3.6875 -7.296875 5.953125q-4.515625 2.25 -10.859375 2.25zm4.046875 -9.609375q5.65625 0 9.78125 -1.921875q4.125 -1.921875 6.328125 -5.375q2.21875 -3.453125 2.21875 -7.96875q0 -4.890625 -2.265625 -8.296875q-2.25 -3.40625 -6.328125 -5.1875q-4.078125 -1.78125 -9.734375 -1.78125q-7.96875 0 -12.390625 4.1875q-4.421875 4.171875 -4.421875 11.078125q0 4.609375 2.109375 8.015625q2.125 3.40625 5.90625 5.328125q3.796875 1.921875 8.796875 1.921875zm18.328125 -39.171875l12.484375 0l0 47.71875l-11.625 0q0 0 -0.234375 -1.875q-0.234375 -1.875 -0.4375 -4.75q-0.1875 -2.875 -0.1875 -5.65625l0 -35.4375zm23.814209 0l12.4687195 0l0 47.71875l-12.4687195 0l0 -47.71875zm34.65622 -1.046875q4.40625 0 8.140625 1.15625q3.75 1.140625 6.53125 3.546875q2.796875 2.40625 4.328125 6.109375q1.53125 3.6875 1.53125 8.765625l0 29.1875l-12.46875 0l0 -26.96875q0 -6.0625 -2.9375 -8.890625q-2.921875 -2.828125 -9.546875 -2.828125q-4.984375 0 -9.03125 1.921875q-4.03125 1.921875 -6.53125 4.859375q-2.484375 2.921875 -2.875 6.078125l-0.09375 -4.890625q0.484375 -3.359375 2.203125 -6.53125q1.734375 -3.171875 4.65625 -5.8125q2.9375 -2.640625 6.96875 -4.171875q4.03125 -1.53125 9.125 -1.53125zm55.66858 41.46875q-7.765625 0 -13.671875 -2.34375q-5.90625 -2.359375 -9.171875 -6.96875q-3.265625 -4.609375 -3.265625 -11.140625q0 -6.421875 3.171875 -11.125q3.171875 -4.703125 9.0625 -7.296875q5.90625 -2.59375 13.875 -2.59375q2.21875 0 4.28125 0.296875q2.0625 0.28125 4.078125 0.75l24.09375 0.109375l0 9.40625q-4.890625 0.09375 -9.9375 -1.203125q-5.03125 -1.296875 -8.875 -2.828125l-0.296875 -0.671875q3.265625 1.53125 6.140625 3.796875q2.890625 2.25 4.65625 5.171875q1.78125 2.921875 1.78125 6.765625q0 6.25 -3.171875 10.71875q-3.15625 4.453125 -8.96875 6.8125q-5.8125 2.34375 -13.78125 2.34375zm16.03125 26.984375l0 -2.3125q0 -4.421875 -2.828125 -6.15625q-2.828125 -1.71875 -7.71875 -1.71875l-14.890625 0q-4.3125 0 -7.25 -0.671875q-2.921875 -0.671875 -4.65625 -1.921875q-1.71875 -1.25 -2.5 -2.9375q-0.765625 -1.671875 -0.765625 -3.578125q0 -3.84375 2.5 -5.8125q2.5 -1.96875 6.71875 -2.640625q4.234375 -0.671875 9.3125 -0.296875l6.046875 1.0625q-6.046875 0.1875 -8.984375 1.015625q-2.921875 0.8125 -2.921875 3.203125q0 1.453125 1.15625 2.265625q1.15625 0.8125 3.265625 0.8125l15.65625 0q6.421875 0 10.984375 1.390625q4.5625 1.390625 6.953125 4.703125q2.40625 3.3125 2.40625 9.078125l0 4.515625l-12.484375 0zm-16.03125 -36.0q4.140625 0 7.25 -1.34375q3.125 -1.359375 4.84375 -3.890625q1.734375 -2.546875 1.734375 -6.09375q0 -3.65625 -1.734375 -6.25q-1.71875 -2.59375 -4.796875 -3.984375q-3.0625 -1.390625 -7.296875 -1.390625q-4.125 0 -7.296875 1.390625q-3.15625 1.390625 -4.890625 3.984375q-1.734375 2.59375 -1.734375 6.25q0 3.546875 1.734375 6.09375q1.734375 2.53125 4.84375 3.890625q3.125 1.34375 7.34375 1.34375z" fill-rule="nonzero"/><path fill="#000000" fill-opacity="0.0" d="m352.3727 306.77167l517.54333 0l0 60.37793l-517.54333 0z" fill-rule="evenodd"/><path fill="#000000" d="m386.23438 372.09164l-6.34375 -38.0625l6.15625 0l5.25 33.25l-1.765625 0l18.875 -33.25l6.265625 0l4.71875 33.25l-1.703125 0l19.390625 -33.25l5.984375 0l-22.34375 38.0625l-6.390625 0l-4.484375 -33.84375l1.640625 0l-18.921875 33.84375l-6.328125 0zm74.97983 -9.5l5.328125 0q-1.078125 2.875 -3.328125 5.171875q-2.234375 2.28125 -5.40625 3.625q-3.15625 1.34375 -7.03125 1.34375q-4.5625 0 -7.734375 -1.921875q-3.15625 -1.9375 -4.5 -5.34375q-1.328125 -3.40625 -0.359375 -7.921875q0.96875 -4.578125 3.6875 -8.0q2.71875 -3.4375 6.65625 -5.375q3.9375 -1.9375 8.453125 -1.9375q4.75 0 7.578125 1.875q2.828125 1.875 3.59375 5.546875q0.78125 3.671875 -0.671875 9.125l-23.984375 0q-0.28125 2.640625 0.59375 4.703125q0.890625 2.046875 2.84375 3.21875q1.953125 1.171875 4.828125 1.171875q3.21875 0 5.703125 -1.46875q2.484375 -1.46875 3.75 -3.8125zm-5.203125 -15.546875q-3.8125 0 -6.765625 2.03125q-2.9375 2.015625 -4.484375 5.359375l18.015625 0q0.53125 -3.578125 -1.421875 -5.484375q-1.9375 -1.90625 -5.34375 -1.90625zm32.149445 25.640625q-3.453125 0 -5.40625 -1.4375q-1.953125 -1.4375 -2.78125 -3.78125q-0.8125 -2.359375 -0.84375 -5.0q-0.015625 -2.640625 0.484375 -4.984375q0.671875 -3.15625 1.8125 -5.90625q1.140625 -2.765625 2.875 -4.875q1.734375 -2.125 4.265625 -3.296875q2.546875 -1.171875 6.0625 -1.171875q3.9375 0 6.59375 1.96875q2.671875 1.96875 3.6875 5.40625q1.03125 3.421875 0.09375 7.875q-0.953125 4.46875 -3.5 7.90625q-2.546875 3.421875 -6.046875 5.359375q-3.484375 1.9375 -7.296875 1.9375zm-0.546875 -4.875q2.8125 0 5.234375 -1.3125q2.421875 -1.328125 4.109375 -3.640625q1.703125 -2.328125 2.359375 -5.375q0.953125 -4.515625 -0.921875 -7.4375q-1.859375 -2.9375 -6.375 -2.9375q-3.046875 0 -5.46875 1.296875q-2.40625 1.28125 -4.03125 3.625q-1.609375 2.34375 -2.265625 5.453125q-0.609375 2.875 -0.03125 5.234375q0.59375 2.34375 2.4375 3.71875q1.84375 1.375 4.953125 1.375zm-1.75 -36.71875l-7.359375 34.609375q-0.28125 1.34375 -0.828125 3.21875q-0.546875 1.875 -0.9375 3.171875l-5.171875 0l8.71875 -41.0l5.578125 0zm22.566895 31.5l5.15625 0q-0.203125 2.34375 1.296875 3.84375q1.515625 1.484375 4.796875 1.484375q2.109375 0 3.375 -0.484375q1.28125 -0.5 1.96875 -1.375q0.6875 -0.890625 0.921875 -1.953125q0.28125 -1.34375 -0.265625 -2.078125q-0.546875 -0.734375 -1.734375 -1.234375q-1.1875 -0.5 -2.84375 -0.96875q-1.828125 -0.515625 -3.609375 -1.21875q-1.78125 -0.703125 -3.1875 -1.703125q-1.40625 -1.0 -2.0625 -2.5q-0.640625 -1.5 -0.1875 -3.65625q0.390625 -1.828125 1.515625 -3.40625q1.140625 -1.59375 2.875 -2.734375q1.734375 -1.140625 3.859375 -1.75q2.125 -0.625 4.53125 -0.625q3.34375 0 5.375 1.203125q2.03125 1.203125 2.765625 3.375q0.75 2.171875 0.21875 4.984375l-4.9375 0q0.125 -2.46875 -0.921875 -3.609375q-1.046875 -1.140625 -3.625 -1.140625q-2.53125 0 -4.09375 1.0q-1.546875 1.0 -1.921875 2.703125q-0.265625 1.28125 0.5 2.078125q0.765625 0.78125 2.21875 1.375q1.453125 0.59375 3.328125 1.234375q1.734375 0.640625 3.3125 1.328125q1.59375 0.671875 2.78125 1.578125q1.1875 0.90625 1.671875 2.34375q0.5 1.4375 0.046875 3.546875q-0.546875 2.578125 -2.25 4.484375q-1.703125 1.90625 -4.359375 2.96875q-2.65625 1.046875 -6.125 1.046875q-3.15625 0 -5.203125 -0.75q-2.03125 -0.765625 -3.265625 -2.0q-1.234375 -1.234375 -1.734375 -2.609375q-0.5 -1.375 -0.5 -2.671875q0.015625 -1.296875 0.3125 -2.109375zm42.908813 -31.859375l-1.296875 6.046875l-6.984375 0l1.296875 -6.046875l6.984375 0zm-8.84375 12.09375l5.5625 0l-6.21875 29.265625l-5.5625 0l6.21875 -29.265625zm11.428955 0l18.953125 0l-1.03125 4.859375l-18.953125 0l1.03125 -4.859375zm8.34375 -7.75l5.578125 0l-7.875 37.015625l-5.578125 0l7.875 -37.015625zm33.796448 27.515625l5.328125 0q-1.078125 2.875 -3.328125 5.171875q-2.234375 2.28125 -5.40625 3.625q-3.15625 1.34375 -7.03125 1.34375q-4.5625 0 -7.734375 -1.921875q-3.15625 -1.9375 -4.5 -5.34375q-1.328125 -3.40625 -0.359375 -7.921875q0.96875 -4.578125 3.6875 -8.0q2.71875 -3.4375 6.65625 -5.375q3.9375 -1.9375 8.453125 -1.9375q4.75 0 7.578125 1.875q2.828125 1.875 3.59375 5.546875q0.78125 3.671875 -0.671875 9.125l-23.984375 0q-0.28125 2.640625 0.59375 4.703125q0.890625 2.046875 2.84375 3.21875q1.953125 1.171875 4.828125 1.171875q3.21875 0 5.703125 -1.46875q2.484375 -1.46875 3.75 -3.8125zm-5.203125 -15.546875q-3.8125 0 -6.765625 2.03125q-2.9375 2.015625 -4.484375 5.359375l18.015625 0q0.53125 -3.578125 -1.421875 -5.484375q-1.9375 -1.90625 -5.34375 -1.90625zm35.772522 11.90625l1.046875 -4.921875l13.671875 0q3.40625 0 5.921875 -2.046875q2.515625 -2.0625 3.21875 -5.40625q0.734375 -3.453125 -0.921875 -5.453125q-1.65625 -2.0 -5.0625 -2.0l-12.734375 0l-7.0 32.96875l-5.625 0l8.09375 -38.0625l18.125 0q2.8125 0 5.078125 0.796875q2.265625 0.78125 3.765625 2.375q1.515625 1.578125 2.046875 3.921875q0.53125 2.34375 -0.125 5.453125q-0.640625 3.046875 -2.171875 5.40625q-1.53125 2.34375 -3.71875 3.90625q-2.171875 1.546875 -4.765625 2.3125q-2.59375 0.75 -5.40625 0.75l-13.4375 0zm43.344604 13.78125q-4.28125 0 -7.46875 -1.8125q-3.1875 -1.8125 -4.578125 -5.21875q-1.390625 -3.40625 -0.375 -8.15625q1.015625 -4.8125 3.859375 -8.234375q2.84375 -3.4375 6.796875 -5.25q3.96875 -1.828125 8.25 -1.828125q4.28125 0 7.421875 1.828125q3.140625 1.8125 4.515625 5.25q1.375 3.421875 0.359375 8.234375q-1.015625 4.75 -3.84375 8.15625q-2.828125 3.40625 -6.75 5.21875q-3.90625 1.8125 -8.1875 1.8125zm1.03125 -4.859375q2.640625 0 5.15625 -1.203125q2.515625 -1.203125 4.390625 -3.515625q1.875 -2.328125 2.578125 -5.609375q0.703125 -3.34375 -0.1875 -5.6875q-0.875 -2.34375 -2.875 -3.578125q-1.984375 -1.234375 -4.625 -1.234375q-2.640625 0 -5.1875 1.203125q-2.546875 1.203125 -4.453125 3.546875q-1.90625 2.34375 -2.625 5.75q-0.703125 3.28125 0.1875 5.609375q0.890625 2.3125 2.921875 3.515625q2.03125 1.203125 4.71875 1.203125zm26.74878 -25.046875l5.625 0l-6.21875 29.265625l-5.625 0l6.21875 -29.265625zm14.46875 4.984375q-3.046875 0 -5.484375 1.40625q-2.4375 1.40625 -4.140625 3.46875q-1.6875 2.046875 -2.5 3.921875l0.65625 -3.34375q0.171875 -0.59375 0.703125 -1.84375q0.53125 -1.265625 1.578125 -2.84375q1.046875 -1.59375 2.515625 -3.03125q1.484375 -1.4375 3.4375 -2.375q1.96875 -0.9375 4.421875 -0.9375l-1.1875 5.578125zm4.1743774 -4.984375l18.953125 0l-1.03125 4.859375l-18.953125 0l1.03125 -4.859375zm8.34375 -7.75l5.578125 0l-7.875 37.015625l-5.578125 0l7.875 -37.015625zm13.855713 7.921875l19.1875 0l-1.03125 4.8125l-19.1875 0l1.03125 -4.8125zm18.546875 -11.90625l3.75 0l-1.09375 5.15625l-3.171875 0q-1.515625 -0.046875 -2.84375 0.390625q-1.328125 0.4375 -2.234375 1.5625q-0.90625 1.109375 -1.359375 3.21875l-6.515625 30.671875l-5.578125 0l6.578125 -30.96875q0.75 -3.515625 2.484375 -5.75q1.75 -2.234375 4.3125 -3.25q2.5625 -1.03125 5.671875 -1.03125zm12.897888 41.640625q-4.28125 0 -7.46875 -1.8125q-3.1875 -1.8125 -4.578125 -5.21875q-1.390625 -3.40625 -0.375 -8.15625q1.015625 -4.8125 3.859375 -8.234375q2.84375 -3.4375 6.796875 -5.25q3.96875 -1.828125 8.25 -1.828125q4.28125 0 7.421875 1.828125q3.140625 1.8125 4.515625 5.25q1.375 3.421875 0.359375 8.234375q-1.015625 4.75 -3.84375 8.15625q-2.828125 3.40625 -6.75 5.21875q-3.90625 1.8125 -8.1875 1.8125zm1.03125 -4.859375q2.640625 0 5.15625 -1.203125q2.515625 -1.203125 4.390625 -3.515625q1.875 -2.328125 2.578125 -5.609375q0.703125 -3.34375 -0.1875 -5.6875q-0.875 -2.34375 -2.875 -3.578125q-1.984375 -1.234375 -4.625 -1.234375q-2.640625 0 -5.1875 1.203125q-2.546875 1.203125 -4.453125 3.546875q-1.90625 2.34375 -2.625 5.75q-0.703125 3.28125 0.1875 5.609375q0.890625 2.3125 2.921875 3.515625q2.03125 1.203125 4.71875 1.203125zm29.826965 -36.78125l5.625 0l-8.71875 41.0l-5.625 0l8.71875 -41.0zm20.487854 -0.359375l-1.296875 6.046875l-6.984375 0l1.296875 -6.046875l6.984375 0zm-8.84375 12.09375l5.5625 0l-6.21875 29.265625l-5.5625 0l6.21875 -29.265625zm21.257019 29.90625q-4.28125 0 -7.46875 -1.8125q-3.1875 -1.8125 -4.578125 -5.21875q-1.390625 -3.40625 -0.375 -8.15625q1.015625 -4.8125 3.859375 -8.234375q2.84375 -3.4375 6.796875 -5.25q3.96875 -1.828125 8.25 -1.828125q4.28125 0 7.421875 1.828125q3.140625 1.8125 4.515625 5.25q1.375 3.421875 0.359375 8.234375q-1.015625 4.75 -3.84375 8.15625q-2.828125 3.40625 -6.75 5.21875q-3.90625 1.8125 -8.1875 1.8125zm1.03125 -4.859375q2.640625 0 5.15625 -1.203125q2.515625 -1.203125 4.390625 -3.515625q1.875 -2.328125 2.578125 -5.609375q0.703125 -3.34375 -0.1875 -5.6875q-0.875 -2.34375 -2.875 -3.578125q-1.984375 -1.234375 -4.625 -1.234375q-2.640625 0 -5.1875 1.203125q-2.546875 1.203125 -4.453125 3.546875q-1.90625 2.34375 -2.625 5.75q-0.703125 3.28125 0.1875 5.609375q0.890625 2.3125 2.921875 3.515625q2.03125 1.203125 4.71875 1.203125z" fill-rule="nonzero"/></g></svg>